<svg width="540" height="442" viewBox="0 0 540 442" fill="none" xmlns="http://www.w3.org/2000/svg">
<g clip-path="url(#clip0)">
<path d="M401.798 346.423H234.367C231.694 346.42 229.131 345.358 227.241 343.47C225.351 341.582 224.288 339.023 224.285 336.353V216.122C224.288 213.452 225.351 210.893 227.241 209.005C229.131 207.117 231.694 206.055 234.367 206.052H401.798C404.471 206.055 407.034 207.117 408.924 209.005C410.815 210.893 411.878 213.452 411.881 216.122V336.353C411.878 339.023 410.814 341.582 408.924 343.47C407.034 345.358 404.471 346.42 401.798 346.423Z" fill="#E6E6E6"/>
<path d="M237.462 338.395H398.703C400 338.395 401.243 337.881 402.16 336.965C403.077 336.05 403.592 334.808 403.592 333.513V218.962C403.592 217.667 403.077 216.425 402.16 215.509C401.243 214.594 400 214.079 398.703 214.079H237.462C236.166 214.079 234.922 214.594 234.005 215.509C233.089 216.425 232.574 217.667 232.574 218.962V333.513C232.574 334.808 233.089 336.05 234.005 336.965C234.922 337.881 236.166 338.395 237.462 338.395Z" fill="white"/>
<path d="M177.513 185.012H10.0825C7.40939 185.009 4.84662 183.947 2.95644 182.059C1.06625 180.171 0.00301956 177.611 0 174.941V54.7109C0.00301794 52.0411 1.06625 49.4815 2.95644 47.5937C4.84662 45.7058 7.40939 44.6439 10.0825 44.6409H177.513C180.187 44.6439 182.749 45.7058 184.639 47.5937C186.53 49.4815 187.593 52.0411 187.596 54.7109V174.941C187.593 177.611 186.53 180.171 184.639 182.059C182.749 183.947 180.187 185.009 177.513 185.012Z" fill="#E6E6E6"/>
<path d="M13.1774 176.984H174.419C175.715 176.984 176.958 176.47 177.875 175.554C178.792 174.639 179.307 173.397 179.307 172.102V57.5506C179.307 56.2557 178.792 55.0138 177.875 54.0982C176.958 53.1825 175.715 52.6681 174.419 52.6681H13.1774C11.8809 52.6681 10.6375 53.1825 9.72068 54.0982C8.80391 55.0138 8.28888 56.2557 8.28888 57.5506V172.102C8.28888 173.397 8.80391 174.639 9.72068 175.554C10.6375 176.47 11.8809 176.984 13.1774 176.984Z" fill="white"/>
<path d="M379.484 249.673H276.489C276.006 249.673 275.527 249.768 275.081 249.952C274.635 250.137 274.229 250.407 273.888 250.749C273.546 251.09 273.275 251.495 273.09 251.94C272.905 252.386 272.81 252.864 272.81 253.346C272.81 253.829 272.905 254.307 273.09 254.752C273.275 255.198 273.546 255.603 273.888 255.944C274.229 256.285 274.635 256.556 275.081 256.741C275.527 256.925 276.006 257.02 276.489 257.02H379.484C380.459 257.02 381.395 256.633 382.085 255.944C382.774 255.255 383.162 254.321 383.162 253.346C383.162 252.372 382.774 251.438 382.085 250.749C381.395 250.06 380.459 249.673 379.484 249.673Z" fill="#E6E6E6"/>
<path d="M276.489 272.281C276.006 272.281 275.527 272.376 275.081 272.561C274.635 272.745 274.229 273.016 273.888 273.357C273.546 273.698 273.275 274.103 273.09 274.549C272.905 274.995 272.81 275.472 272.81 275.955C272.81 276.437 272.905 276.915 273.09 277.361C273.275 277.806 273.546 278.211 273.888 278.553C274.229 278.894 274.635 279.164 275.081 279.349C275.527 279.534 276.006 279.629 276.489 279.629H379.484C380.459 279.629 381.395 279.242 382.085 278.553C382.774 277.864 383.162 276.929 383.162 275.955C383.162 274.98 382.774 274.046 382.085 273.357C381.395 272.668 380.459 272.281 379.484 272.281H276.489Z" fill="#E6E6E6"/>
<path d="M276.489 294.889C275.513 294.889 274.577 295.276 273.888 295.965C273.198 296.654 272.81 297.589 272.81 298.563C272.81 299.537 273.198 300.472 273.888 301.161C274.577 301.85 275.513 302.237 276.489 302.237H379.484C380.459 302.237 381.395 301.85 382.085 301.161C382.774 300.472 383.162 299.537 383.162 298.563C383.162 297.589 382.774 296.654 382.085 295.965C381.395 295.276 380.459 294.889 379.484 294.889H276.489Z" fill="#E6E6E6"/>
<path d="M256.965 258.151C259.465 258.151 261.492 256.126 261.492 253.629C261.492 251.132 259.465 249.107 256.965 249.107C254.464 249.107 252.438 251.132 252.438 253.629C252.438 256.126 254.464 258.151 256.965 258.151Z" fill="#1B1F22"/>
<path d="M256.965 280.759C259.465 280.759 261.492 278.735 261.492 276.237C261.492 273.74 259.465 271.716 256.965 271.716C254.464 271.716 252.438 273.74 252.438 276.237C252.438 278.735 254.464 280.759 256.965 280.759Z" fill="#E6E6E6"/>
<path d="M256.965 303.367C259.465 303.367 261.492 301.343 261.492 298.846C261.492 296.348 259.465 294.324 256.965 294.324C254.464 294.324 252.438 296.348 252.438 298.846C252.438 301.343 254.464 303.367 256.965 303.367Z" fill="#E6E6E6"/>
<path d="M338.455 253.346C338.455 253.829 338.36 254.307 338.175 254.752C337.99 255.198 337.719 255.603 337.378 255.944C337.036 256.285 336.631 256.556 336.185 256.741C335.738 256.925 335.26 257.02 334.777 257.02H276.621C275.712 257.034 274.83 256.719 274.135 256.133C273.441 255.548 272.982 254.731 272.842 253.835C272.773 253.316 272.816 252.788 272.968 252.287C273.12 251.786 273.377 251.323 273.722 250.929C274.067 250.535 274.493 250.219 274.97 250.003C275.447 249.786 275.965 249.673 276.489 249.673H334.777C335.752 249.673 336.688 250.06 337.378 250.749C338.068 251.438 338.455 252.372 338.455 253.346V253.346Z" fill="#1B1F22"/>
<path d="M318.083 190.608C326.209 190.608 332.796 184.029 332.796 175.913C332.796 167.797 326.209 161.218 318.083 161.218C309.957 161.218 303.369 167.797 303.369 175.913C303.369 184.029 309.957 190.608 318.083 190.608Z" fill="#E6E6E6"/>
<path d="M325.344 177.09C325.995 173.084 323.272 169.31 319.261 168.66C315.251 168.01 311.472 170.73 310.821 174.736C310.17 178.742 312.894 182.516 316.904 183.166C320.915 183.816 324.694 181.096 325.344 177.09Z" fill="white"/>
<path d="M25.0968 111.335C24.13 111.335 23.2028 111.719 22.5191 112.402C21.8355 113.084 21.4514 114.011 21.4514 114.976C21.4514 115.942 21.8355 116.868 22.5191 117.551C23.2028 118.233 24.13 118.617 25.0968 118.617H162.499C163.466 118.617 164.393 118.233 165.077 117.551C165.76 116.868 166.145 115.942 166.145 114.976C166.145 114.011 165.76 113.084 165.077 112.402C164.393 111.719 163.466 111.335 162.499 111.335H25.0968Z" fill="#E6E6E6"/>
<path d="M25.0968 133.741C24.13 133.741 23.2028 134.124 22.5191 134.807C21.8355 135.49 21.4514 136.416 21.4514 137.382C21.4514 138.347 21.8355 139.273 22.5191 139.956C23.2028 140.639 24.13 141.022 25.0968 141.022H162.499C163.466 141.022 164.393 140.639 165.077 139.956C165.76 139.273 166.145 138.347 166.145 137.382C166.145 136.416 165.76 135.49 165.077 134.807C164.393 134.124 163.466 133.741 162.499 133.741H25.0968Z" fill="#E6E6E6"/>
<path d="M86.5072 157.266C85.5404 157.266 84.6132 157.65 83.9296 158.333C83.2459 159.015 82.8618 159.942 82.8618 160.907C82.8618 161.873 83.2459 162.799 83.9296 163.482C84.6132 164.164 85.5404 164.548 86.5072 164.548H101.089C102.056 164.548 102.983 164.164 103.666 163.482C104.35 162.799 104.734 161.873 104.734 160.907C104.734 159.942 104.35 159.015 103.666 158.333C102.983 157.65 102.056 157.266 101.089 157.266H86.5072Z" fill="#1B1F22"/>
<path d="M74.2589 65.1043C73.9615 65.1046 73.6763 65.2228 73.466 65.4328C73.2558 65.6428 73.1375 65.9276 73.1372 66.2246V94.6626C73.1375 94.9596 73.2558 95.2444 73.466 95.4544C73.6763 95.6644 73.9615 95.7826 74.2589 95.7829H113.337C113.634 95.7826 113.92 95.6644 114.13 95.4544C114.34 95.2444 114.458 94.9596 114.459 94.6626V66.2246C114.458 65.9276 114.34 65.6428 114.13 65.4328C113.92 65.2227 113.634 65.1046 113.337 65.1043L74.2589 65.1043Z" fill="#1B1F22"/>
<path d="M93.798 83.4599C97.205 83.4599 99.967 80.7013 99.967 77.2984C99.967 73.8955 97.205 71.137 93.798 71.137C90.3909 71.137 87.6289 73.8955 87.6289 77.2984C87.6289 80.7013 90.3909 83.4599 93.798 83.4599Z" fill="white"/>
<path d="M103.893 92.9822C103.895 93.956 103.664 94.9162 103.22 95.7829H84.3761C83.8959 94.8435 83.6652 93.7967 83.7061 92.7428C83.747 91.6889 84.0581 90.6631 84.6097 89.7636C85.1613 88.8642 85.9348 88.1213 86.8563 87.606C87.7777 87.0907 88.8161 86.8203 89.8722 86.8207H97.7237C99.3589 86.8198 100.928 87.4677 102.084 88.6219C103.241 89.7761 103.892 91.342 103.893 92.9752V92.9822Z" fill="white"/>
<path d="M93.798 83.4599C97.205 83.4599 99.967 80.7013 99.967 77.2984C99.967 73.8955 97.205 71.137 93.798 71.137C90.3909 71.137 87.6289 73.8955 87.6289 77.2984C87.6289 80.7013 90.3909 83.4599 93.798 83.4599Z" fill="white"/>
<path d="M103.893 92.9822C103.895 93.956 103.664 94.9162 103.22 95.7829H84.3761C83.8959 94.8435 83.6652 93.7967 83.7061 92.7428C83.747 91.6889 84.0581 90.6631 84.6097 89.7636C85.1613 88.8642 85.9348 88.1213 86.8563 87.606C87.7777 87.0907 88.8161 86.8203 89.8722 86.8207H97.7237C99.3589 86.8198 100.928 87.4677 102.084 88.6219C103.241 89.7761 103.892 91.342 103.893 92.9752V92.9822Z" fill="white"/>
<path d="M93.798 29.1269C101.851 29.1269 108.379 22.6067 108.379 14.5635C108.379 6.52029 101.851 0 93.798 0C85.7448 0 79.2165 6.52029 79.2165 14.5635C79.2165 22.6067 85.7448 29.1269 93.798 29.1269Z" fill="#E6E6E6"/>
<path d="M93.798 21.8452C97.8245 21.8452 101.089 18.5851 101.089 14.5635C101.089 10.5419 97.8245 7.28174 93.798 7.28174C89.7714 7.28174 86.5072 10.5419 86.5072 14.5635C86.5072 18.5851 89.7714 21.8452 93.798 21.8452Z" fill="#1B1F22"/>
<path d="M457.147 434.075L450.161 434.074L446.839 407.162L457.149 407.163L457.147 434.075Z" fill="#FFB8B8"/>
<path d="M445.171 432.081H458.644V440.553H436.688C436.688 439.441 436.908 438.339 437.334 437.311C437.76 436.283 438.385 435.349 439.173 434.562C439.961 433.776 440.896 433.152 441.925 432.726C442.954 432.3 444.057 432.081 445.171 432.081Z" fill="#2F2E41"/>
<path d="M494.802 434.075L487.815 434.074L484.494 407.162L494.804 407.163L494.802 434.075Z" fill="#FFB8B8"/>
<path d="M482.826 432.081H496.298V440.553H474.343C474.343 439.441 474.562 438.339 474.988 437.311C475.415 436.283 476.04 435.349 476.827 434.562C477.615 433.776 478.55 433.152 479.579 432.726C480.608 432.3 481.712 432.081 482.826 432.081Z" fill="#2F2E41"/>
<path d="M474.342 242.759C482.631 242.759 489.351 236.048 489.351 227.769C489.351 219.491 482.631 212.779 474.342 212.779C466.054 212.779 459.334 219.491 459.334 227.769C459.334 236.048 466.054 242.759 474.342 242.759Z" fill="#FFB8B8"/>
<path d="M423.024 325.527C423.129 324.697 423.415 323.9 423.861 323.192C424.308 322.484 424.904 321.883 425.609 321.43C426.313 320.978 427.108 320.685 427.939 320.572C428.769 320.46 429.613 320.53 430.413 320.779L438.801 310.737L446.154 314.339L434.11 328.355C433.602 329.669 432.629 330.752 431.376 331.397C430.123 332.043 428.676 332.207 427.309 331.859C425.943 331.51 424.752 330.673 423.962 329.506C423.172 328.339 422.838 326.923 423.024 325.527Z" fill="#FFB8B8"/>
<path d="M495.211 335.684C494.853 334.927 494.667 334.101 494.663 333.265C494.66 332.428 494.84 331.601 495.192 330.841C495.543 330.082 496.057 329.408 496.697 328.869C497.337 328.329 498.088 327.936 498.896 327.718L500.58 314.749L508.721 313.848L506.085 332.13C506.363 333.511 506.123 334.946 505.413 336.162C504.702 337.379 503.569 338.293 502.228 338.731C500.888 339.169 499.433 339.101 498.14 338.539C496.847 337.977 495.804 336.961 495.211 335.684L495.211 335.684Z" fill="#FFB8B8"/>
<path d="M486.885 256.082C487.683 255.058 488.738 254.263 489.942 253.777C491.146 253.29 492.457 253.13 493.743 253.311C495.029 253.492 496.245 254.009 497.267 254.81C498.289 255.61 499.082 256.666 499.565 257.87L511.866 288.532C513.123 291.666 513.524 295.076 513.028 298.415L509.021 325.366C508.969 325.713 508.843 326.046 508.651 326.34C508.458 326.635 508.205 326.884 507.907 327.072C507.609 327.259 507.275 327.38 506.926 327.427C506.577 327.473 506.222 327.444 505.886 327.341L500.606 325.721C500.06 325.554 499.589 325.2 499.277 324.722C498.964 324.243 498.83 323.671 498.896 323.103C500.76 307.237 498.297 291.163 491.769 276.579L485.97 263.623C485.423 262.401 485.219 261.054 485.38 259.726C485.542 258.397 486.062 257.138 486.885 256.082Z" fill="#1B1F22"/>
<path d="M477.997 242.758C480.255 242.807 482.499 242.378 484.58 241.499C486.661 240.62 488.532 239.311 490.07 237.658C491.609 236.006 492.779 234.047 493.506 231.91C494.232 229.773 494.497 227.507 494.284 225.261C494.071 223.014 493.384 220.838 492.269 218.876C491.154 216.913 489.636 215.208 487.814 213.874C485.992 212.539 483.908 211.604 481.699 211.131C479.49 210.658 477.206 210.658 474.996 211.129C471.696 209.128 467.858 207.781 464.013 208.123C460.167 208.466 456.363 210.746 454.925 214.325C453.487 217.904 455.032 222.622 458.608 224.076C460.9 225.009 463.489 224.557 465.936 224.181C468.383 223.805 471.052 223.559 473.181 224.82C475.31 226.081 476.267 229.462 474.36 231.038C473.35 231.907 472.628 233.063 472.291 234.351C471.954 235.64 472.019 237.001 472.476 238.252C473.434 240.728 476.05 242.716 477.997 242.758Z" fill="#2F2E41"/>
<path d="M496.617 324.934L499.28 425.842C499.289 426.179 499.228 426.513 499.101 426.825C498.974 427.137 498.784 427.419 498.543 427.654C498.302 427.889 498.015 428.072 497.7 428.191C497.385 428.309 497.048 428.362 496.712 428.345L487.942 427.898C487.382 427.869 486.849 427.65 486.432 427.276C486.016 426.902 485.74 426.396 485.652 425.843L475.221 360.303C475.176 360.022 475.035 359.766 474.822 359.578C474.608 359.391 474.336 359.283 474.052 359.274C473.768 359.265 473.489 359.356 473.265 359.53C473.04 359.704 472.883 359.951 472.821 360.228L458.701 423.332C458.626 423.669 458.479 423.987 458.272 424.263C458.064 424.54 457.8 424.769 457.497 424.936C457.195 425.103 456.86 425.204 456.515 425.233C456.17 425.261 455.823 425.215 455.497 425.1L446.793 424.569C446.289 424.39 445.858 424.051 445.566 423.604C445.274 423.158 445.136 422.627 445.174 422.095L452.772 323.979L496.617 324.934Z" fill="#2F2E41"/>
<path d="M500.89 277.006C502.358 261.715 491.101 247.884 475.759 246.796C469.149 246.327 458.887 246.16 455.504 254.813C445.313 280.882 463.153 280.248 457.006 302.834C450.86 325.42 445.431 326.714 453.864 328.345C462.298 329.976 500.224 339.603 498.666 323.707C497.709 313.935 499.425 292.26 500.89 277.006Z" fill="#1B1F22"/>
<path d="M457.308 252.162C458.519 251.693 459.833 251.552 461.116 251.753C462.4 251.954 463.607 252.489 464.617 253.305C465.627 254.121 466.404 255.188 466.868 256.4C467.333 257.611 467.47 258.923 467.265 260.204L462.475 290.104C461.655 295.217 459.491 300.02 456.202 304.023L440.645 322.957C440.421 323.229 440.142 323.449 439.826 323.603C439.509 323.757 439.163 323.841 438.811 323.849C438.459 323.857 438.11 323.789 437.787 323.65C437.464 323.511 437.174 323.303 436.939 323.042L433.243 318.943C432.861 318.519 432.639 317.974 432.617 317.403C432.595 316.833 432.775 316.272 433.124 315.82L434.212 314.409C443.263 302.678 448.972 288.724 450.738 274.02L452.642 258.161C452.802 256.832 453.32 255.572 454.142 254.515C454.964 253.458 456.059 252.645 457.308 252.162Z" fill="#1B1F22"/>
<path d="M539.389 442H381.735C381.573 442 381.418 441.936 381.303 441.821C381.188 441.707 381.124 441.552 381.124 441.39C381.124 441.228 381.188 441.073 381.303 440.958C381.418 440.844 381.573 440.779 381.735 440.779H539.389C539.551 440.779 539.706 440.844 539.821 440.958C539.936 441.073 540 441.228 540 441.39C540 441.552 539.936 441.707 539.821 441.821C539.706 441.936 539.551 442 539.389 442Z" fill="#CCCCCC"/>
</g>
<defs>
<clipPath id="clip0">
<rect width="540" height="442" fill="white"/>
</clipPath>
</defs>
</svg>
